<svg version="1.1" xmlns="http://www.w3.org/2000/svg" xmlns:xlink="http://www.w3.org/1999/xlink">
<defs>
<symbol id="icon-icon_tram" viewBox="0 0 1024 1024">
	<title>icon_tram</title>
	<path fill="rgb(255, 255, 255)" class="path1 fill-color14" d="M870.393 993.287h-716.811c-67.864 0-122.883-55.015-122.883-122.883v-716.811c0-67.864 55.015-122.883 122.883-122.883h716.811c67.864 0 122.883 55.015 122.883 122.883v716.811c0 67.868-55.015 122.883-122.883 122.883z"></path>
	<path fill="rgb(0, 152, 95)" class="path2 fill-color5" d="M0.033 126.799c0-69.114 57.594-126.709 126.709-126.709h767.931c71.676 0 129.27 57.594 129.27 126.709v767.931c0 71.672-57.594 129.27-129.27 129.27h-767.931c-69.114 0-126.709-57.594-126.709-129.27v-767.931zM715.492 218.95c-6.398-15.36-15.357-23.037-30.717-26.877-55.033-14.078-94.713-19.197-145.909-20.476v-44.799h94.713c12.799 0 23.037-11.52 23.037-24.319 0-15.357-10.238-26.877-23.037-26.877h-240.618c-15.357 0-26.877 11.517-26.877 26.877 0 12.799 11.52 24.319 26.877 24.319h93.43v44.795c-52.475 1.279-94.713 6.398-145.909 20.476-17.918 5.119-26.877 11.517-34.557 26.877l-21.758 52.475c-6.398 15.357-6.398 37.115-6.398 53.754v460.76c0 23.037 15.357 37.115 38.397 40.955 69.114 14.078 129.27 19.197 195.823 19.197 63.995 0 125.43-5.119 197.102-19.197 21.758-3.84 38.397-17.918 38.397-40.955v-460.753c0-16.639-3.84-38.397-10.238-53.754l-21.758-52.479zM651.497 908.812v-38.397l-47.356 6.398v31.996h-183.024v-31.996l-47.356-6.398v38.397h-38.397c-14.078 0-23.037 11.517-23.037 23.037 0 16.639 8.959 26.877 23.037 26.877h354.527c11.52 0 24.319-10.238 24.319-26.877 0-11.517-12.799-23.037-24.319-23.037h-38.394zM323.846 711.706c0-17.918 12.799-31.996 29.435-31.996 17.918 0 30.717 14.078 30.717 31.996 0 16.639-12.799 28.156-30.717 28.156-16.636 0.004-29.435-11.517-29.435-28.156zM325.125 314.942h372.449v311.011c-48.635 14.078-117.75 23.037-185.585 23.037-66.553 0-135.668-10.238-186.864-23.037v-311.011zM646.378 711.706c0-17.918 11.52-31.996 28.156-31.996 17.918 0 31.996 14.078 31.996 31.996 0 16.639-14.078 28.156-31.996 28.156-16.636 0.004-28.156-11.517-28.156-28.156z"></path>
</symbol>
<symbol id="icon-icon_bus" viewBox="0 0 1024 1024">
	<title>icon_bus</title>
	<path fill="rgb(255, 255, 255)" class="path1 fill-color14" d="M874.388 993.287h-716.811c-67.864 0-122.883-55.015-122.883-122.883v-716.811c0-67.864 55.015-122.883 122.883-122.883h716.811c67.864 0 122.883 55.015 122.883 122.883v716.811c0 67.868-55.018 122.883-122.883 122.883z"></path>
	<path fill="rgb(0, 122, 201)" class="path2 fill-color8" d="M0.033 126.799c0-69.114 57.594-126.709 126.709-126.709h767.931c71.676 0 129.27 57.594 129.27 126.709v767.931c0 71.672-57.594 129.27-129.27 129.27h-767.928c-69.114 0-126.709-57.594-126.709-129.27v-767.931zM513.268 110.16c-106.229 0-198.384 5.119-299.491 19.197-30.717 3.84-48.635 21.758-48.635 48.635v598.985c0 19.197 14.078 31.996 26.877 35.836l38.397 6.398v80.631c0 8.959 7.68 15.36 17.918 15.36h61.434c7.68 0 15.357-6.398 15.357-15.36v-71.672c49.914 6.398 117.75 8.959 185.585 8.959 69.114 0 139.508-2.558 188.146-8.959v71.672c0 8.959 8.959 15.36 16.636 15.36h61.434c10.238 0 17.918-6.398 17.918-15.36v-80.631l38.397-6.398c14.078-3.84 26.877-15.357 26.877-35.836v-598.982c0-26.877-17.918-44.795-48.635-48.635-102.393-12.799-195.823-19.2-298.216-19.2zM778.205 620.834c-72.951 12.799-168.946 25.598-262.376 25.598-98.553 0-191.983-11.517-266.216-28.156-20.476-3.84-28.156-11.52-28.156-28.156v-373.731c0-16.636 7.68-28.156 28.156-28.156l528.592 2.558c20.479 0 26.877 11.52 26.877 28.159v373.728c0 16.639-6.398 25.598-26.877 28.156zM241.933 723.227c1.279-16.636 16.636-31.996 34.557-31.996 17.918 0 33.275 15.357 33.275 31.996 0 19.197-15.357 34.557-33.275 34.557-19.197-1.279-34.557-16.639-34.557-34.557zM710.373 723.227c1.279-16.636 16.639-31.996 33.275-31.996 17.918 0 33.278 15.357 33.278 31.996 0 19.197-15.357 34.557-33.278 34.557-17.918-1.279-33.275-16.639-33.275-34.557z"></path>
</symbol>
<symbol id="icon-icon_subway" viewBox="0 0 1024 1024">
	<title>icon_subway</title>
	<path fill="rgb(255, 255, 255)" class="path1 fill-color14" d="M871.036 993.287h-716.811c-67.864 0-122.883-55.015-122.883-122.883v-716.811c0-67.864 55.015-122.883 122.883-122.883h716.811c67.864 0 122.883 55.015 122.883 122.883v716.811c0 67.868-55.018 122.883-122.883 122.883z"></path>
	<path fill="rgb(255, 99, 25)" class="path2 fill-color13" d="M0.033 126.799c0-69.114 57.594-126.709 126.709-126.709h767.931c71.676 0 129.27 57.594 129.27 126.709v767.931c0 71.672-57.594 129.27-129.27 129.27h-767.931c-69.114 0-126.709-57.594-126.709-129.27v-767.931zM511.989 120.401c-121.59 0-222.7 11.517-305.892 26.877-34.557 3.84-57.594 29.438-57.594 66.553v501.715c0 35.836 21.758 63.995 57.594 69.114 83.192 14.078 184.303 26.877 305.892 26.877 122.868 0 223.979-11.517 307.171-26.877 33.278-5.119 56.315-30.717 56.315-66.553v-501.719c0-37.115-21.758-65.274-56.315-69.114-83.192-14.074-184.303-26.873-307.171-26.873zM197.138 677.149c1.279-16.639 16.639-31.996 34.557-31.996 16.639 0 31.996 15.357 31.996 31.996 0 19.197-15.357 34.557-31.996 34.557-19.2-1.279-34.557-16.639-34.557-34.557zM202.257 560.682v-323.814c0-17.918 10.238-30.717 25.598-30.717h566.99c16.639 0 28.156 14.078 28.156 30.717v323.81c0 17.918-8.959 29.438-25.598 29.438h-565.707c-16.639 0-29.438-12.795-29.438-29.435zM376.322 861.455c-12.799 0-25.598 14.078-25.598 28.156 0 12.799 12.799 25.598 25.598 25.598h276.454c12.799 0 25.598-12.799 25.598-25.598 0-14.078-12.799-28.156-25.598-28.156h-276.454zM761.566 677.149c1.279-16.639 16.636-31.996 33.275-31.996 17.918 0 31.996 15.357 31.996 31.996 0 19.197-14.078 34.557-31.996 34.557-19.197-1.279-33.275-16.639-33.275-34.557z"></path>
</symbol>
<symbol id="icon-icon_rail" viewBox="0 0 1024 1024">
	<title>icon_rail</title>
	<path fill="rgb(255, 255, 255)" class="path1 fill-color14" d="M870.407 993.287h-716.811c-67.864 0-122.883-55.015-122.883-122.883v-716.811c0-67.864 55.015-122.883 122.883-122.883h716.811c67.864 0 122.883 55.015 122.883 122.883v716.811c0 67.868-55.018 122.883-122.883 122.883z"></path>
	<path fill="rgb(140, 71, 153)" class="path2 fill-color10" d="M0.033 126.799c0-69.114 57.594-126.709 126.709-126.709h767.931c71.676 0 129.27 57.594 129.27 126.709v767.931c0 71.672-57.594 129.27-129.27 129.27h-767.931c-69.114 0-126.709-57.594-126.709-129.27v-767.931zM785.886 130.639c-28.156-25.598-149.749-55.036-273.896-55.036-120.311 0-244.458 29.438-271.335 55.036-19.197 16.636-38.397 55.033-61.434 103.672-19.197 42.234-34.557 81.913-34.557 104.95v369.888c0 29.438 10.238 42.237 49.918 72.954 29.435 23.037 42.234 33.275 87.032 33.275h84.471v55.036h295.654v-55.036h83.192c44.795 0 57.594-10.238 85.754-33.275 39.676-31.996 48.635-43.516 48.635-72.954v-369.888c0-23.037-15.357-62.713-33.275-104.95-23.044-48.639-40.962-87.032-60.159-103.672zM751.328 908.812v-53.754h-47.356v53.754h-381.404v-53.754h-48.639v53.754h-58.873c-14.078 0-25.598 11.517-25.598 24.316 0 14.078 11.52 25.598 25.598 25.598h596.428c14.078 0 24.316-11.52 24.316-25.598 0-12.799-10.238-24.316-24.316-24.316h-60.155zM724.451 582.44c-3.836 21.758-25.595 38.397-47.356 38.397h-327.654c-21.758 0-43.516-16.639-47.353-38.397l-60.155-254.699c-3.84-21.758 10.238-38.397 31.996-38.397h477.399c21.758 0 37.115 16.639 31.996 38.397l-58.873 254.699zM706.533 175.434v21.758c0 16.639-12.799 30.717-29.438 30.717h-327.654c-16.636 0-30.717-14.078-30.717-30.717v-21.758h387.809zM318.727 715.546c0-17.918 12.799-31.996 30.717-31.996s33.278 14.078 33.278 31.996-15.357 30.717-33.278 30.717c-17.918 0-30.717-12.799-30.717-30.717zM645.099 711.706c0-17.918 14.078-31.996 31.996-31.996s31.996 14.078 31.996 31.996-14.078 30.717-31.996 30.717c-17.918 0-31.996-12.799-31.996-30.717z"></path>
</symbol>
<symbol id="icon-icon_ferry" viewBox="0 0 1024 1024">
	<title>icon_ferry</title>
	<path fill="rgb(255, 255, 255)" class="path1 fill-color14" d="M870.396 993.287h-716.814c-67.864 0-122.883-55.015-122.883-122.883v-716.811c0-67.864 55.015-122.883 122.883-122.883h716.814c67.864 0 122.883 55.015 122.883 122.883v716.811c-0.004 67.868-55.018 122.883-122.883 122.883z"></path>
	<path fill="rgb(0, 185, 228)" class="path2 fill-color11" d="M0.036 126.799c0-69.114 57.594-126.709 126.709-126.709h767.931c71.676 0 129.266 57.594 129.266 126.709v767.931c0 71.672-57.591 129.27-129.266 129.27h-767.931c-69.114 0-126.709-57.594-126.709-129.27v-767.931zM154.901 865.292c-12.799 0-24.316 10.238-24.316 24.319 0 14.078 11.517 24.316 24.316 24.316h714.177c14.078 0 25.598-10.238 25.598-24.316s-11.517-24.319-25.598-24.319h-714.177zM820.443 582.44c0 0-102.393-26.877-171.507-42.234-60.155-12.799-134.389-21.758-139.508-21.758s-78.073 8.959-139.508 21.758c-69.114 15.357-171.507 42.234-171.507 42.234l28.159 243.179h566.99l26.881-243.179zM369.92 491.568c61.434-12.799 135.671-21.758 139.508-23.037 3.836 1.279 78.073 10.238 139.508 23.037 47.353 10.238 74.233 16.639 108.791 25.598v-177.905c0-23.037 6.398-53.754-53.758-53.754h-111.348v-167.667c0-8.959-7.68-16.639-16.636-17.918h-133.11c-8.959 1.279-15.36 8.959-16.639 17.918v167.663h-111.348c-60.152 0-53.758 30.717-53.758 53.754v177.905l108.791-25.595zM430.079 378.937c0 26.877-20.479 47.356-47.356 47.356s-47.353-20.479-47.353-47.356c0-26.877 20.476-47.356 47.353-47.356s47.356 20.479 47.356 47.356zM556.788 378.937c0 26.877-20.479 47.356-47.356 47.356-25.598 0-47.353-20.479-47.353-47.356s21.754-47.356 47.353-47.356c26.877 0 47.356 20.479 47.356 47.356zM683.493 378.937c0 26.877-20.476 47.356-47.353 47.356-25.598 0-47.356-20.479-47.356-47.356s21.758-47.356 47.356-47.356c26.877 0 47.353 20.479 47.353 47.356z"></path>
</symbol>
<symbol id="icon-icon_ferry-live" viewBox="0 0 1024 1024">
	<title>icon_ferry-live</title>
	<path fill="rgb(0, 185, 228)" class="path1 fill-color11" d="M1024.007 512c0 282.774-229.233 512.007-512.007 512.007s-512.007-229.233-512.007-512.007c0-282.774 229.233-512.007 512.007-512.007s512.007 229.233 512.007 512.007z"></path>
	<path fill="rgb(0, 139, 171)" class="path2 fill-color7" d="M512 36.118c127.113 0 246.618 49.499 336.501 139.381s139.381 209.388 139.381 336.501-49.502 246.618-139.381 336.501c-89.883 89.883-209.388 139.381-336.501 139.381s-246.618-49.502-336.501-139.381c-89.883-89.883-139.381-209.388-139.381-336.501s49.499-246.618 139.381-336.501c89.883-89.883 209.388-139.381 336.501-139.381zM512-0.007c-282.776 0-512.007 229.231-512.007 512.007s229.231 512.007 512.007 512.007 512.007-229.235 512.007-512.007-229.231-512.007-512.007-512.007v0z"></path>
	<path fill="rgb(255, 255, 255)" class="path3 fill-color14" d="M780.236 782.497c10.624 0 19.32 7.727 19.32 18.355 0 10.624-8.695 18.355-19.32 18.355h-539.068c-9.66 0-18.355-7.727-18.355-18.355s8.695-18.355 18.355-18.355h539.068zM723.237 752.553h-427.97l-21.252-183.555c0 0 77.286-20.288 129.454-31.88 46.37-9.66 101.435-16.426 105.301-16.426s59.895 6.763 105.301 16.426c52.168 11.593 129.454 31.88 129.454 31.88l-20.288 183.555zM321.35 519.727v-134.284c0-17.387-4.83-40.576 40.572-40.576h84.048v-126.553c0.968-6.763 5.798-12.561 12.557-13.525h100.471c6.763 0.968 12.557 6.763 12.557 13.525v126.553h84.048c45.406 0 40.572 23.185 40.572 40.576v134.284c-26.082-6.763-46.37-11.593-82.116-19.323-46.37-9.66-102.404-16.422-105.301-17.391-2.901 0.968-58.931 7.727-105.301 17.391l-82.109 19.323zM377.384 415.394c0 20.288 15.458 35.746 35.746 35.746 20.284 0 35.742-15.458 35.742-35.746s-15.458-35.746-35.742-35.746c-20.288 0-35.746 15.458-35.746 35.746zM473.025 415.394c0 20.288 16.426 35.746 35.746 35.746 20.284 0 35.742-15.458 35.742-35.746s-15.458-35.746-35.742-35.746c-19.323 0-35.746 15.458-35.746 35.746zM568.666 415.394c0 20.288 16.426 35.746 35.742 35.746 20.288 0 35.746-15.458 35.746-35.746s-15.458-35.746-35.746-35.746c-19.32 0-35.742 15.458-35.742 35.746z"></path>
</symbol>
</defs>
</svg>