<svg version="1.1" xmlns="http://www.w3.org/2000/svg" xmlns:xlink="http://www.w3.org/1999/xlink">
<defs>
<symbol id="icon-close" viewBox="0 0 512 512">
	<path d="M405 136.798L375.202 107 256 226.202 136.798 107 107 136.798 226.202 256 107 375.202 136.798 405 256 285.798 375.202 405 405 375.202 285.798 256z"/>
</symbol>
<symbol id="icon-flag" viewBox="0 0 512 512">
	<path d="M396 83.2c-13.8 1.7-31.1 4.2-49.6 4.2-28.8 0-55-6.8-81.5-12.2C238 69.7 210.2 64 180.8 64c-58.6 0-78.5 12.1-80.6 13.4L96 80.3V448h48V269.8c9.7-1.2 21.9-2 36.9-2 27.3 0 52.8 10 79.8 15.5 27.6 5.6 56 11.5 86.9 11.5 18.4 0 34.6-2.4 48.4-4 7.5-.9 14-1.7 20-2.7V80.2c-5 1-12.5 2.1-20 3z"/>
</symbol>
<symbol id="icon-menu" viewBox="0 0 512 512">
	<path d="M64 384h384v-42.666H64V384zm0-106.666h384v-42.667H64v42.667zM64 128v42.665h384V128H64z"/>
</symbol>
<symbol id="icon-star-outline" viewBox="0 0 512 512">
	<path d="M458 210.409l-145.267-12.476L256 64l-56.743 133.934L54 210.409l110.192 95.524L131.161 448 256 372.686 380.83 448l-33.021-142.066L458 210.409zM272.531 345.286L256 335.312l-16.53 9.973-59.988 36.191 15.879-68.296 4.369-18.79-14.577-12.637-52.994-45.939 69.836-5.998 19.206-1.65 7.521-17.75 27.276-64.381 27.27 64.379 7.52 17.751 19.208 1.65 69.846 5.998-52.993 45.939-14.576 12.636 4.367 18.788 15.875 68.299-59.984-36.189z"/>
</symbol>
<symbol id="icon-star" viewBox="0 0 512 512">
  <path d="M256 372.686L380.83 448l-33.021-142.066L458 210.409l-145.267-12.475L256 64l-56.743 133.934L54 210.409l110.192 95.525L131.161 448z"/>
</symbol>
<symbol id="icon-time" viewBox="0 0 512 512">
	<g fill-opacity=".9">
  <path d="M255.8 48C141 48 48 141.2 48 256s93 208 207.8 208c115 0 208.2-93.2 208.2-208S370.8 48 255.8 48zm.2 374.4c-91.9 0-166.4-74.5-166.4-166.4S164.1 89.6 256 89.6 422.4 164.1 422.4 256 347.9 422.4 256 422.4z"/>
  <path d="M266.4 152h-31.2v124.8l109.2 65.5 15.6-25.6-93.6-55.5V152z"/>
</g>
</symbol>
</defs>
</svg>
