<?xml version="1.0" encoding="UTF-8" standalone="no"?>
<svg
    xmlns:dc="http://purl.org/dc/elements/1.1/"
    xmlns:cc="http://creativecommons.org/ns#"
    xmlns:rdf="http://www.w3.org/1999/02/22-rdf-syntax-ns#"
    xmlns:svg="http://www.w3.org/2000/svg"
    xmlns="http://www.w3.org/2000/svg"
    xmlns:sodipodi="http://sodipodi.sourceforge.net/DTD/sodipodi-0.dtd"
    xmlns:inkscape="http://www.inkscape.org/namespaces/inkscape"
    inkscape:export-ydpi="198.34"
    inkscape:export-xdpi="198.34"
    inkscape:export-filename="/home/miitri/Pictures/Projects/nearestdepartures/julkisilla_icon.png"
    sodipodi:docname="logo_v3.svg"
    inkscape:version="1.0.2 (e86c870879, 2021-01-15, custom)"
    version="1.1"
    id="svg17940"
    viewBox="0 0 24.139832 26.03451"
    height="7.3475175mm"
    width="6.8127971mm"
    >
  <defs id="defs17942" />
  <sodipodi:namedview
      id="base"
      pagecolor="#ffffff"
      bordercolor="#666666"
      borderopacity="1.0"
      inkscape:pageopacity="0.0"
      inkscape:pageshadow="2"
      inkscape:zoom="11.2"
      inkscape:cx="36.663315"
      inkscape:cy="15.744021"
      inkscape:document-units="px"
      inkscape:current-layer="layer9"
      showgrid="false"
      showguides="true"
      inkscape:guide-bbox="true"
      fit-margin-top="0"
      fit-margin-left="0"
      fit-margin-right="0"
      fit-margin-bottom="0"
      inkscape:window-width="2560"
      inkscape:window-height="1377"
      inkscape:window-x="-8"
      inkscape:window-y="-8"
      inkscape:window-maximized="1"
      inkscape:document-rotation="0"
      lock-margins="false"
      >
    <sodipodi:guide
        position="201.98601,-189.46094"
        orientation="0,-1"
        id="guide850"
        />
    <sodipodi:guide
        position="-87.758411,71.91237"
        orientation="1,0"
        id="guide867"
        />
    <sodipodi:guide
        position="456.95253,-1.7935457"
        orientation="1,0"
        id="guide869"
        />
    <sodipodi:guide
        position="-25.728736,90.852729"
        orientation="0,-1"
        id="guide871"
        />
    <sodipodi:guide
        position="296.23825,-420.98995"
        orientation="0,-1"
        id="guide873"
        />
    <sodipodi:guide
        position="-8.4456577,-189.46094"
        orientation="1,0"
        id="guide1065"
        />
    <sodipodi:guide
        position="189.43022,-169.01937"
        orientation="1,0"
        id="guide1067"
        />
  </sodipodi:namedview>
  <g
      inkscape:groupmode="layer"
      id="layer9"
      inkscape:label="bbox_3"
      style="display:inline"
      transform="translate(-78.761743,-76.594768)"
      >
    <g id="g1116">
      <g id="g1107">
        <path
            sodipodi:nodetypes="csccccscssascccsccssaaasacccccc"
            inkscape:connector-curvature="0"
            id="path22510"
            d="m 97.676986,76.594768 c -0.23067,0 -0.516831,0.184713 -0.637298,0.416372 l -3.408229,6.554193 c -0.006,0.01148 -0.0089,0.02573 -0.01017,0.04148 l -3.553931,6.435326 -3.245991,5.355634 c -0.369233,0.431238 -0.827911,1.219908 -1.41664,1.637431 -0.33797,0.239692 -0.741838,0.451075 -1.156136,0.456632 -0.312861,0.0042 -0.661616,-0.09906 -0.881943,-0.321228 -0.198585,-0.20024 -0.323756,-0.460944 -0.313982,-0.72373 0.02018,-0.542479 0.09915,-0.57916 0.206203,-0.850532 0.384311,-0.97423 1.220733,-2.153103 1.543714,-2.73648 0,0 1.843381,-2.908141 1.979652,-3.267072 0.143069,-0.218426 0.03522,-0.399139 -0.195446,-0.397278 -1.655904,7.26e-4 -3.393059,7.26e-4 -4.921816,0.01808 -0.230669,0 -0.418797,-0.04792 -0.532277,0.187238 l -0.875824,1.814924 c -0.0019,0.0039 -0.0037,0.01396 -0.0056,0.02128 -0.407474,0.791457 -0.7354,1.563273 -0.946915,2.423852 -0.358073,1.456885 -0.764987,3.262532 -0.398798,4.717397 0.256823,1.02035 0.655829,1.716473 1.251872,2.389903 0.603663,0.68202 1.402901,1.21417 2.248558,1.55245 0.607171,0.24289 1.28407,0.32391 1.937782,0.30633 0.666208,-0.0179 1.347156,-0.19143 1.95519,-0.41787 0.796719,-0.29672 1.664087,-1.12461 2.36062,-1.83844 1.439172,-1.474899 3.057589,-4.004344 3.677824,-4.969176 0,0 6.601592,-11.233519 9.927205,-17.299262 0.21148,-0.388905 0.36829,-0.678657 0.46883,-0.894684 l 0.11033,-0.196394 c 0.12788,-0.227651 0.0352,-0.416372 -0.19545,-0.416372 -1.74496,0.0111 -3.192827,-1e-6 -4.971381,0 z"
            style="display:inline;fill:#ffffff;fill-opacity:1;fill-rule:evenodd;stroke:none;stroke-width:0.0693953px;stroke-linecap:butt;stroke-linejoin:miter;stroke-opacity:1"
            />
        <g id="g1099">
          <path
              style="fill:#fffffd;fill-opacity:1;stroke-width:0.0324327"
              d="m 80.969701,88.346783 c -0.0191,-0.03592 -0.03396,-0.263625 -0.03396,-0.520342 0,-0.507929 0.02144,-0.477132 -0.375843,-0.539895 -0.08783,-0.01387 -0.16514,-0.05441 -0.22627,-0.118647 -0.09286,-0.09757 -0.09286,-0.09757 -0.101128,-3.552974 -0.0078,-3.240004 -0.0047,-3.462505 0.04848,-3.5693 0.08507,-0.170705 0.272139,-0.247028 0.751728,-0.306696 1.797917,-0.223686 3.829654,-0.229841 5.764611,-0.01746 0.600228,0.06588 0.78783,0.118999 0.910354,0.257764 0.06368,0.07212 0.06478,0.125531 0.07316,3.573069 0.0077,3.154486 0.0034,3.50765 -0.04292,3.578874 -0.06115,0.09395 -0.19719,0.154637 -0.418133,0.18652 -0.08889,0.01283 -0.179803,0.03839 -0.202026,0.0568 -0.02886,0.02391 -0.04041,0.165303 -0.04041,0.494839 0,0.315447 -0.01227,0.47371 -0.03879,0.500409 -0.04306,0.04335 -0.790442,0.05572 -0.854835,0.01415 -0.02372,-0.01532 -0.04115,-0.177873 -0.04849,-0.452402 -0.0063,-0.235671 -0.02167,-0.438767 -0.03416,-0.451325 -0.01249,-0.01256 -0.252498,-0.0064 -0.533351,0.01369 -0.657836,0.04705 -2.464525,0.04705 -3.122361,0 -0.280852,-0.02009 -0.520861,-0.02624 -0.53335,-0.01367 -0.01249,0.01257 -0.0297,0.222998 -0.03887,0.467596 -0.01778,0.474232 0.02625,0.423874 -0.11989,0.430833 -0.271253,0.01292 -0.752046,0.02745 -0.783556,-0.03183 z m 3.624176,-2.833898 c 1.034216,-0.05056 2.402761,-0.23243 2.567683,-0.341216 0.04417,-0.02913 0.0942,-0.08977 0.111186,-0.134742 0.01849,-0.04897 0.03088,-0.942942 0.03088,-2.228437 0,-2.311845 -1.89e-4,-2.314748 -0.166967,-2.410425 -0.10534,-0.06043 -6.065207,-0.08362 -6.207825,-0.02414 -0.191816,0.07999 -0.18705,0.0189 -0.186918,2.395439 6.3e-5,2.085737 0.0026,2.17791 0.06215,2.276168 0.07475,0.123421 0.1441,0.147933 0.713514,0.252212 0.611191,0.11193 1.253772,0.185745 1.858647,0.213509 0.284454,0.01306 0.531734,0.02576 0.549513,0.02823 0.01778,0.0025 0.318439,-0.0095 0.668137,-0.0266 z"
              id="path1035"
              sodipodi:nodetypes="ssssscsssssssssssscssssssssscscsssss"
              />
          <g
              id="g1053"
              transform="matrix(0.08626153,0,0,0.08626153,103.42148,65.355188)"
              style="fill:#007ac9;fill-opacity:1"
              >
            <circle
                style="fill:#007ac9;fill-opacity:1;stroke:none;stroke-width:7.5"
                id="path1047"
                cx="-255.21764"
                cy="243.08035"
                r="5.1060271"
                />
            <circle
                style="fill:#007ac9;fill-opacity:1;stroke:none;stroke-width:7.5"
                id="circle1049"
                cx="-195.45201"
                cy="243.08035"
                r="5.1060271"
                />
          </g>
        </g>
      </g>
    </g>
  </g>
</svg>
