<svg version="1.1" xmlns="http://www.w3.org/2000/svg" xmlns:xlink="http://www.w3.org/1999/xlink">
<defs>
<symbol id="icon-icon_tram" viewBox="0 0 1024 1024">
	<title>icon_tram</title>
	<path fill="rgb(255, 255, 255)" class="path1 fill-color14" d="M870.393 993.287h-716.811c-67.864 0-122.883-55.015-122.883-122.883v-716.811c0-67.864 55.015-122.883 122.883-122.883h716.811c67.864 0 122.883 55.015 122.883 122.883v716.811c0 67.868-55.015 122.883-122.883 122.883z"></path>
	<path fill="rgb(0, 152, 95)" class="path2 fill-color5" d="M0.033 126.799c0-69.114 57.594-126.709 126.709-126.709h767.931c71.676 0 129.27 57.594 129.27 126.709v767.931c0 71.672-57.594 129.27-129.27 129.27h-767.931c-69.114 0-126.709-57.594-126.709-129.27v-767.931zM715.492 218.95c-6.398-15.36-15.357-23.037-30.717-26.877-55.033-14.078-94.713-19.197-145.909-20.476v-44.799h94.713c12.799 0 23.037-11.52 23.037-24.319 0-15.357-10.238-26.877-23.037-26.877h-240.618c-15.357 0-26.877 11.517-26.877 26.877 0 12.799 11.52 24.319 26.877 24.319h93.43v44.795c-52.475 1.279-94.713 6.398-145.909 20.476-17.918 5.119-26.877 11.517-34.557 26.877l-21.758 52.475c-6.398 15.357-6.398 37.115-6.398 53.754v460.76c0 23.037 15.357 37.115 38.397 40.955 69.114 14.078 129.27 19.197 195.823 19.197 63.995 0 125.43-5.119 197.102-19.197 21.758-3.84 38.397-17.918 38.397-40.955v-460.753c0-16.639-3.84-38.397-10.238-53.754l-21.758-52.479zM651.497 908.812v-38.397l-47.356 6.398v31.996h-183.024v-31.996l-47.356-6.398v38.397h-38.397c-14.078 0-23.037 11.517-23.037 23.037 0 16.639 8.959 26.877 23.037 26.877h354.527c11.52 0 24.319-10.238 24.319-26.877 0-11.517-12.799-23.037-24.319-23.037h-38.394zM323.846 711.706c0-17.918 12.799-31.996 29.435-31.996 17.918 0 30.717 14.078 30.717 31.996 0 16.639-12.799 28.156-30.717 28.156-16.636 0.004-29.435-11.517-29.435-28.156zM325.125 314.942h372.449v311.011c-48.635 14.078-117.75 23.037-185.585 23.037-66.553 0-135.668-10.238-186.864-23.037v-311.011zM646.378 711.706c0-17.918 11.52-31.996 28.156-31.996 17.918 0 31.996 14.078 31.996 31.996 0 16.639-14.078 28.156-31.996 28.156-16.636 0.004-28.156-11.517-28.156-28.156z"></path>
</symbol>
<symbol id="icon-icon_tram-withoutBox" viewBox="0 0 1024 1024">
	<title>icon_tram-withoutBox</title>
	<path class="path1" d="M773.086 227.057c7.42 17.81 11.871 43.039 11.871 62.33v534.271c0 26.711-19.291 43.039-44.524 47.49-83.106 16.325-154.341 22.26-228.545 22.26-77.174 0-146.924-5.935-227.064-22.26-26.714-4.454-44.524-20.779-44.524-47.49v-534.271c0-19.294 0-44.524 7.42-62.33l25.226-60.845c8.905-17.81 19.294-25.23 40.073-31.165 59.364-16.325 108.339-22.26 169.184-23.745v-51.944h-108.339c-17.81 0-31.165-13.359-31.165-28.199 0-17.81 13.355-31.165 31.165-31.165h279.004c14.84 0 26.714 13.355 26.714 31.165 0 14.84-11.874 28.199-26.714 28.199h-109.824v51.944c59.364 1.481 105.373 7.42 169.184 23.745 17.81 4.454 28.196 13.355 35.616 31.165l25.241 60.845zM718.173 966.128c13.359 0 28.203 13.355 28.203 26.711 0 19.294-14.84 31.165-28.203 31.165h-411.088c-16.325 0-26.714-11.874-26.714-31.165 0-13.355 10.39-26.711 26.714-26.711h44.524v-44.524l54.91 7.42v37.104h212.224v-37.1l54.914-7.42v44.524h44.517zM363.479 737.579c0-20.776-14.84-37.104-35.616-37.104-19.291 0-34.131 16.325-34.131 37.104 0 19.294 14.84 32.65 34.131 32.65 20.776 0 35.616-13.355 35.616-32.65zM295.21 638.145c59.364 14.84 139.504 26.714 216.678 26.714 78.655 0 158.795-10.39 215.19-26.714v-360.629h-431.867v360.629zM737.471 737.579c0-20.776-16.325-37.104-37.104-37.104-19.291 0-32.653 16.325-32.653 37.104 0 19.294 13.359 32.65 32.653 32.65 20.776 0 37.104-13.355 37.104-32.65z"></path>
</symbol>
<symbol id="icon-icon_bus" viewBox="0 0 1024 1024">
	<title>icon_bus</title>
	<path fill="rgb(255, 255, 255)" class="path1 fill-color14" d="M874.388 993.287h-716.811c-67.864 0-122.883-55.015-122.883-122.883v-716.811c0-67.864 55.015-122.883 122.883-122.883h716.811c67.864 0 122.883 55.015 122.883 122.883v716.811c0 67.868-55.018 122.883-122.883 122.883z"></path>
	<path fill="rgb(0, 122, 201)" class="path2 fill-color8" d="M0.033 126.799c0-69.114 57.594-126.709 126.709-126.709h767.931c71.676 0 129.27 57.594 129.27 126.709v767.931c0 71.672-57.594 129.27-129.27 129.27h-767.928c-69.114 0-126.709-57.594-126.709-129.27v-767.931zM513.268 110.16c-106.229 0-198.384 5.119-299.491 19.197-30.717 3.84-48.635 21.758-48.635 48.635v598.985c0 19.197 14.078 31.996 26.877 35.836l38.397 6.398v80.631c0 8.959 7.68 15.36 17.918 15.36h61.434c7.68 0 15.357-6.398 15.357-15.36v-71.672c49.914 6.398 117.75 8.959 185.585 8.959 69.114 0 139.508-2.558 188.146-8.959v71.672c0 8.959 8.959 15.36 16.636 15.36h61.434c10.238 0 17.918-6.398 17.918-15.36v-80.631l38.397-6.398c14.078-3.84 26.877-15.357 26.877-35.836v-598.982c0-26.877-17.918-44.795-48.635-48.635-102.393-12.799-195.823-19.2-298.216-19.2zM778.205 620.834c-72.951 12.799-168.946 25.598-262.376 25.598-98.553 0-191.983-11.517-266.216-28.156-20.476-3.84-28.156-11.52-28.156-28.156v-373.731c0-16.636 7.68-28.156 28.156-28.156l528.592 2.558c20.479 0 26.877 11.52 26.877 28.159v373.728c0 16.639-6.398 25.598-26.877 28.156zM241.933 723.227c1.279-16.636 16.636-31.996 34.557-31.996 17.918 0 33.275 15.357 33.275 31.996 0 19.197-15.357 34.557-33.275 34.557-19.197-1.279-34.557-16.639-34.557-34.557zM710.373 723.227c1.279-16.636 16.639-31.996 33.275-31.996 17.918 0 33.278 15.357 33.278 31.996 0 19.197-15.357 34.557-33.278 34.557-17.918-1.279-33.275-16.639-33.275-34.557z"></path>
</symbol>
<symbol id="icon-icon_bus-withoutBox" viewBox="0 0 1024 1024">
	<title>icon_bus-withoutBox</title>
	<path class="path1" d="M954.633 86.277v761.906c0 26.050-16.282 40.702-34.189 45.586l-48.841 8.139v102.563c0 11.397-9.765 19.536-22.791 19.536h-78.142c-9.768 0-21.162-8.139-21.162-19.536v-91.169c-61.868 8.139-151.407 11.397-239.321 11.397-86.285 0-172.566-3.255-236.059-11.397v91.169c0 11.397-9.768 19.536-19.536 19.536h-78.146c-13.023 0-22.791-8.139-22.791-19.536v-102.563l-48.841-8.139c-16.282-4.884-34.189-21.166-34.189-45.586v-761.906c0-34.189 22.791-56.98 61.868-61.864 128.609-17.911 245.827-24.421 380.953-24.421 130.242 0 249.086 8.139 379.327 24.421 39.069 4.884 61.86 27.675 61.86 61.864zM884.63 138.373c0-21.166-8.139-35.818-34.189-35.818l-672.366-3.255c-26.050 0-35.818 14.652-35.818 35.814v475.38c0 21.162 9.768 30.93 35.818 35.814 94.424 21.166 213.268 35.814 338.625 35.814 118.844 0 240.947-16.282 333.741-32.559 26.050-3.255 34.189-14.652 34.189-35.814v-475.376zM254.588 779.806c0-21.162-19.533-40.698-42.324-40.698-22.795 0-42.328 19.536-43.957 40.698 0 22.795 19.536 42.328 43.957 43.957 22.791 0 42.324-19.536 42.324-43.957zM848.812 779.806c0-21.162-19.533-40.698-42.328-40.698-21.162 0-40.695 19.536-42.324 40.698 0 22.795 19.533 42.328 42.324 43.957 22.795 0 42.328-19.536 42.328-43.957z"></path>
</symbol>
<symbol id="icon-icon_subway" viewBox="0 0 1024 1024">
	<title>icon_subway</title>
	<path fill="rgb(255, 255, 255)" class="path1 fill-color14" d="M871.036 993.287h-716.811c-67.864 0-122.883-55.015-122.883-122.883v-716.811c0-67.864 55.015-122.883 122.883-122.883h716.811c67.864 0 122.883 55.015 122.883 122.883v716.811c0 67.868-55.018 122.883-122.883 122.883z"></path>
	<path fill="rgb(255, 99, 25)" class="path2 fill-color13" d="M0.033 126.799c0-69.114 57.594-126.709 126.709-126.709h767.931c71.676 0 129.27 57.594 129.27 126.709v767.931c0 71.672-57.594 129.27-129.27 129.27h-767.931c-69.114 0-126.709-57.594-126.709-129.27v-767.931zM511.989 120.401c-121.59 0-222.7 11.517-305.892 26.877-34.557 3.84-57.594 29.438-57.594 66.553v501.715c0 35.836 21.758 63.995 57.594 69.114 83.192 14.078 184.303 26.877 305.892 26.877 122.868 0 223.979-11.517 307.171-26.877 33.278-5.119 56.315-30.717 56.315-66.553v-501.719c0-37.115-21.758-65.274-56.315-69.114-83.192-14.074-184.303-26.873-307.171-26.873zM197.138 677.149c1.279-16.639 16.639-31.996 34.557-31.996 16.639 0 31.996 15.357 31.996 31.996 0 19.197-15.357 34.557-31.996 34.557-19.2-1.279-34.557-16.639-34.557-34.557zM202.257 560.682v-323.814c0-17.918 10.238-30.717 25.598-30.717h566.99c16.639 0 28.156 14.078 28.156 30.717v323.81c0 17.918-8.959 29.438-25.598 29.438h-565.707c-16.639 0-29.438-12.795-29.438-29.435zM376.322 861.455c-12.799 0-25.598 14.078-25.598 28.156 0 12.799 12.799 25.598 25.598 25.598h276.454c12.799 0 25.598-12.799 25.598-25.598 0-14.078-12.799-28.156-25.598-28.156h-276.454zM761.566 677.149c1.279-16.639 16.636-31.996 33.275-31.996 17.918 0 31.996 15.357 31.996 31.996 0 19.197-14.078 34.557-31.996 34.557-19.197-1.279-33.275-16.639-33.275-34.557z"></path>
</symbol>
<symbol id="icon-icon_subway-withoutBox" viewBox="0 0 1024 1024">
	<title>icon_subway-withoutBox</title>
	<path class="path1" d="M980.285 123.663v646.4c0 46.171-29.68 79.154-72.554 85.746-107.183 19.786-237.453 34.626-395.753 34.626-156.653 0-286.923-16.487-394.11-34.626-46.171-6.596-74.204-42.873-74.204-89.045v-646.4c0-47.819 29.684-80.801 74.204-85.746 107.183-19.786 237.453-34.626 394.11-34.626 158.3 0 288.57 16.491 395.753 34.626 44.52 4.949 72.554 41.226 72.554 89.045zM192.073 717.299c0-21.437-19.786-41.226-41.226-41.226-23.084 0-42.873 19.786-44.52 41.226 0 23.084 19.786 42.873 44.52 44.524 21.44-0.004 41.226-19.789 41.226-44.524zM879.695 605.166c21.44 0 32.979-14.844 32.979-37.928v-417.19c0-21.437-14.84-39.575-36.277-39.575h-730.491c-19.789 0-32.979 16.491-32.979 39.575v417.19c0 21.437 16.491 37.928 37.924 37.928h728.844zM693.362 954.752c16.491 0 32.979 18.138 32.979 36.277 0 16.491-16.491 32.979-32.979 32.979h-356.178c-16.491 0-32.979-16.491-32.979-32.979 0-18.138 16.491-36.277 32.979-36.277h356.178zM917.626 717.299c0-21.437-18.138-41.226-41.226-41.226-21.44 0-41.226 19.786-42.873 41.226 0 23.084 18.138 42.873 42.873 44.524 23.088-0.004 41.226-19.789 41.226-44.524z"></path>
</symbol>
<symbol id="icon-icon_rail" viewBox="0 0 1024 1024">
	<title>icon_rail</title>
	<path fill="rgb(255, 255, 255)" class="path1 fill-color14" d="M870.407 993.287h-716.811c-67.864 0-122.883-55.015-122.883-122.883v-716.811c0-67.864 55.015-122.883 122.883-122.883h716.811c67.864 0 122.883 55.015 122.883 122.883v716.811c0 67.868-55.018 122.883-122.883 122.883z"></path>
	<path fill="rgb(140, 71, 153)" class="path2 fill-color10" d="M0.033 126.799c0-69.114 57.594-126.709 126.709-126.709h767.931c71.676 0 129.27 57.594 129.27 126.709v767.931c0 71.672-57.594 129.27-129.27 129.27h-767.931c-69.114 0-126.709-57.594-126.709-129.27v-767.931zM785.886 130.639c-28.156-25.598-149.749-55.036-273.896-55.036-120.311 0-244.458 29.438-271.335 55.036-19.197 16.636-38.397 55.033-61.434 103.672-19.197 42.234-34.557 81.913-34.557 104.95v369.888c0 29.438 10.238 42.237 49.918 72.954 29.435 23.037 42.234 33.275 87.032 33.275h84.471v55.036h295.654v-55.036h83.192c44.795 0 57.594-10.238 85.754-33.275 39.676-31.996 48.635-43.516 48.635-72.954v-369.888c0-23.037-15.357-62.713-33.275-104.95-23.044-48.639-40.962-87.032-60.159-103.672zM751.328 908.812v-53.754h-47.356v53.754h-381.404v-53.754h-48.639v53.754h-58.873c-14.078 0-25.598 11.517-25.598 24.316 0 14.078 11.52 25.598 25.598 25.598h596.428c14.078 0 24.316-11.52 24.316-25.598 0-12.799-10.238-24.316-24.316-24.316h-60.155zM724.451 582.44c-3.836 21.758-25.595 38.397-47.356 38.397h-327.654c-21.758 0-43.516-16.639-47.353-38.397l-60.155-254.699c-3.84-21.758 10.238-38.397 31.996-38.397h477.399c21.758 0 37.115 16.639 31.996 38.397l-58.873 254.699zM706.533 175.434v21.758c0 16.639-12.799 30.717-29.438 30.717h-327.654c-16.636 0-30.717-14.078-30.717-30.717v-21.758h387.809zM318.727 715.546c0-17.918 12.799-31.996 30.717-31.996s33.278 14.078 33.278 31.996-15.357 30.717-33.278 30.717c-17.918 0-30.717-12.799-30.717-30.717zM645.099 711.706c0-17.918 14.078-31.996 31.996-31.996s31.996 14.078 31.996 31.996-14.078 30.717-31.996 30.717c-17.918 0-31.996-12.799-31.996-30.717z"></path>
</symbol>
<symbol id="icon-icon_rail-withoutBox" viewBox="0 0 1024 1024">
	<title>icon_rail-withoutBox</title>
	<path class="path1" d="M937.929 305.712v428.902c0 34.135-10.386 47.49-56.395 84.594-32.646 26.711-47.49 38.585-99.431 38.585h-96.465v63.815h-342.823v-63.818h-97.949c-51.944 0-66.784-11.874-100.915-38.585-46.009-35.616-57.88-50.459-57.88-84.594v-428.898c0-26.711 17.81-72.72 40.070-121.694 26.714-56.395 48.978-100.919 71.239-120.21 31.161-29.68 175.12-63.815 314.624-63.815 143.955 0 284.943 34.135 317.59 63.815 22.26 19.291 43.039 63.815 69.754 120.21 20.776 48.975 38.582 94.984 38.582 121.694zM859.273 966.128c16.325 0 28.196 13.355 28.196 28.196 0 16.325-11.871 29.68-28.196 29.68h-691.578c-16.325 0-29.68-13.359-29.68-29.68 0-14.84 13.355-28.196 29.68-28.196h68.265v-62.33h56.398v62.33h442.253v-62.33h54.914v62.33h69.747zM826.627 292.356c5.935-25.23-11.874-44.524-37.104-44.524h-553.565c-25.226 0-41.555 19.294-37.097 44.524l69.75 295.333c4.451 25.23 29.68 44.524 54.91 44.524h379.923c25.23 0 50.463-19.294 54.914-44.524l68.269-295.333zM287.902 115.748v25.23c0 19.294 16.325 35.619 35.616 35.619h379.923c19.294 0 34.138-16.325 34.138-35.619v-25.23h-449.677zM362.106 742.033c0-20.776-17.806-37.104-38.589-37.104-20.776 0-35.616 16.325-35.616 37.104 0 20.776 14.84 35.616 35.616 35.616 20.783 0 38.589-14.84 38.589-35.616zM740.549 737.579c0-20.776-16.321-37.104-37.104-37.104-20.776 0-37.097 16.325-37.097 37.104 0 20.776 16.321 35.616 37.097 35.616 20.783 0.004 37.104-14.84 37.104-35.616z"></path>
</symbol>
<symbol id="icon-icon_ferry" viewBox="0 0 1024 1024">
	<title>icon_ferry</title>
	<path fill="rgb(255, 255, 255)" class="path1 fill-color14" d="M870.396 993.287h-716.814c-67.864 0-122.883-55.015-122.883-122.883v-716.811c0-67.864 55.015-122.883 122.883-122.883h716.814c67.864 0 122.883 55.015 122.883 122.883v716.811c-0.004 67.868-55.018 122.883-122.883 122.883z"></path>
	<path fill="rgb(0, 185, 228)" class="path2 fill-color11" d="M0.036 126.799c0-69.114 57.594-126.709 126.709-126.709h767.931c71.676 0 129.266 57.594 129.266 126.709v767.931c0 71.672-57.591 129.27-129.266 129.27h-767.931c-69.114 0-126.709-57.594-126.709-129.27v-767.931zM154.901 865.292c-12.799 0-24.316 10.238-24.316 24.319 0 14.078 11.517 24.316 24.316 24.316h714.177c14.078 0 25.598-10.238 25.598-24.316s-11.517-24.319-25.598-24.319h-714.177zM820.443 582.44c0 0-102.393-26.877-171.507-42.234-60.155-12.799-134.389-21.758-139.508-21.758s-78.073 8.959-139.508 21.758c-69.114 15.357-171.507 42.234-171.507 42.234l28.159 243.179h566.99l26.881-243.179zM369.92 491.568c61.434-12.799 135.671-21.758 139.508-23.037 3.836 1.279 78.073 10.238 139.508 23.037 47.353 10.238 74.233 16.639 108.791 25.598v-177.905c0-23.037 6.398-53.754-53.758-53.754h-111.348v-167.667c0-8.959-7.68-16.639-16.636-17.918h-133.11c-8.959 1.279-15.36 8.959-16.639 17.918v167.663h-111.348c-60.152 0-53.758 30.717-53.758 53.754v177.905l108.791-25.595zM430.079 378.937c0 26.877-20.479 47.356-47.356 47.356s-47.353-20.479-47.353-47.356c0-26.877 20.476-47.356 47.353-47.356s47.356 20.479 47.356 47.356zM556.788 378.937c0 26.877-20.479 47.356-47.356 47.356-25.598 0-47.353-20.479-47.353-47.356s21.754-47.356 47.353-47.356c26.877 0 47.356 20.479 47.356 47.356zM683.493 378.937c0 26.877-20.476 47.356-47.353 47.356-25.598 0-47.356-20.479-47.356-47.356s21.758-47.356 47.356-47.356c26.877 0 47.353 20.479 47.353 47.356z"></path>
</symbol>
<symbol id="icon-icon_ferry-withoutBox" viewBox="0 0 1024 1024">
	<title>icon_ferry-withoutBox</title>
	<path class="path1" d="M961.666 962.822c17.708 0 32.198 12.882 32.198 30.594 0 17.708-14.49 30.591-32.198 30.591h-898.429c-16.101 0-30.591-12.882-30.591-30.591 0-17.712 14.49-30.594 30.591-30.594h898.429zM866.672 912.912h-713.274l-35.421-305.918c0 0 128.807-33.809 215.753-53.133 77.282-16.101 169.058-27.372 175.499-27.372s99.824 11.271 175.495 27.372c86.946 19.32 215.753 53.133 215.753 53.133l-33.806 305.918zM196.874 524.882v-223.805c0-28.979-8.052-67.622 67.622-67.622h140.082v-210.92c1.611-11.271 9.66-20.931 20.931-22.542h167.45c11.271 1.611 20.931 11.271 20.931 22.542v210.92h140.082c75.671 0 67.622 38.643 67.622 67.622v223.802c-43.469-11.271-77.282-19.32-136.86-32.202-77.282-16.101-170.665-27.372-175.495-28.983-4.834 1.611-98.217 12.882-175.499 28.983l-136.867 32.205zM290.257 350.991c0 33.809 25.761 59.574 59.574 59.574 33.809 0 59.57-25.761 59.57-59.574s-25.761-59.574-59.57-59.574c-33.809 0-59.574 25.761-59.574 59.574zM449.655 350.991c0 33.809 27.372 59.574 59.574 59.574 33.809 0 59.57-25.761 59.57-59.574s-25.761-59.574-59.57-59.574c-32.198 0-59.574 25.761-59.574 59.574zM609.057 350.991c0 33.809 27.372 59.574 59.57 59.574 33.813 0 59.574-25.761 59.574-59.574s-25.761-59.574-59.574-59.574c-32.198 0-59.57 25.761-59.57 59.574z"></path>
</symbol>
</defs>
</svg>